<?xml version="1.0" standalone="no"?><!DOCTYPE svg PUBLIC "-//W3C//DTD SVG 1.1//EN" "http://www.w3.org/Graphics/SVG/1.1/DTD/svg11.dtd"><svg t="1687698374946" class="icon" viewBox="0 0 1024 1024" version="1.1" xmlns="http://www.w3.org/2000/svg" p-id="2214" xmlns:xlink="http://www.w3.org/1999/xlink" width="200" height="200"><path d="M512 938.688a45.76 45.76 0 0 1-46.912-46.208v-129.408c0-26.24 20.288-46.208 46.912-46.208 26.56 0 46.912 20.032 46.912 46.208v129.408c0 26.176-20.352 46.208-46.912 46.208z" fill="#172B4D" p-id="2215"></path><path d="M887.488 773.824H138.048c-51.584 0-95.36-41.6-95.36-93.952V179.264c0-52.352 42.24-93.952 95.36-93.952h749.44c51.584 0 93.824 41.6 93.824 93.952v500.608a94.72 94.72 0 0 1-93.824 94.016zM138.048 177.728l-1.536 502.144 750.976 1.6V177.728H138.048zM649.664 938.688H374.4a45.76 45.76 0 0 1-46.912-46.208c0-26.24 20.288-46.208 46.912-46.208h275.328c26.624 0 46.912 20.032 46.912 46.208s-20.288 46.208-46.912 46.208z" fill="#172B4D" p-id="2216"></path></svg>