<?xml version="1.0" standalone="no"?><!DOCTYPE svg PUBLIC "-//W3C//DTD SVG 1.1//EN" "http://www.w3.org/Graphics/SVG/1.1/DTD/svg11.dtd"><svg t="1687698698338" class="icon" viewBox="0 0 1024 1024" version="1.1" xmlns="http://www.w3.org/2000/svg" p-id="802" xmlns:xlink="http://www.w3.org/1999/xlink" width="200" height="200"><path d="M975.238095 473.35619v61.756953c-10.435048 116.004571-79.11619 215.235048-176.615619 268.239238l-32.548571-62.464a269.824 269.824 0 0 0 140.092952-236.641524 269.897143 269.897143 0 0 0-148.309333-240.981333l32.499809-62.512762c101.839238 51.809524 174.153143 153.35619 184.880762 272.579048z m-140.288 23.722667a210.627048 210.627048 0 0 1-101.766095 180.662857l-32.597333-62.659047a140.239238 140.239238 0 0 0 63.878095-118.00381 140.239238 140.239238 0 0 0-66.023619-119.369143l32.548571-62.634666a210.627048 210.627048 0 0 1 103.960381 182.003809zM649.752381 187.196952v600.81981c0 48.030476-59.294476 71.289905-92.525714 36.327619l-154.502096-164.376381-13.287619-0.024381v104.399238a70.460952 70.460952 0 0 1-70.460952 70.412191h-70.460952a70.460952 70.460952 0 0 1-70.460953-70.412191v-104.399238H143.60381A70.460952 70.460952 0 0 1 73.142857 589.58019v-211.675428a70.460952 70.460952 0 0 1 66.316191-70.290286l5.071238-0.097524 260.583619 3.413334 152.112762-160.012191c33.231238-34.962286 92.525714-11.702857 92.525714 36.327619zM579.291429 229.912381l-144.335239 151.82019-291.35238-3.85219v211.675429l104.886857-0.048762v174.835809h70.460952v-174.884571l114.297905 0.121904 146.041905 155.404191V229.912381z" p-id="803"></path></svg>