<?xml version="1.0" standalone="no"?><!DOCTYPE svg PUBLIC "-//W3C//DTD SVG 1.1//EN" "http://www.w3.org/Graphics/SVG/1.1/DTD/svg11.dtd"><svg t="1687698500955" class="icon" viewBox="0 0 1024 1024" version="1.1" xmlns="http://www.w3.org/2000/svg" p-id="5070" xmlns:xlink="http://www.w3.org/1999/xlink" width="200" height="200"><path d="M469.333333 832v-85.333333H149.482667A106.773333 106.773333 0 0 1 42.666667 639.829333V213.504A106.773333 106.773333 0 0 1 149.482667 106.666667h725.034666A106.773333 106.773333 0 0 1 981.333333 213.504v426.325333A106.773333 106.773333 0 0 1 874.517333 746.666667H554.666667v85.333333h149.333333a42.666667 42.666667 0 1 1 0 85.333333H320a42.666667 42.666667 0 1 1 0-85.333333h149.333333zM128 213.504v426.325333C128 651.754667 137.6 661.333333 149.482667 661.333333h725.034666c11.904 0 21.482667-9.6 21.482667-21.504V213.504C896 201.578667 886.4 192 874.517333 192H149.482667C137.578667 192 128 201.6 128 213.504z m136.832 221.994667a42.666667 42.666667 0 0 1-60.330667-60.330667l106.666667-106.666667a42.666667 42.666667 0 0 1 60.330667 60.330667l-106.666667 106.666667z" p-id="5071"></path></svg>